<?xml version="1.0" encoding="utf-8"?>
<!-- Generator: Adobe Illustrator 26.0.0, SVG Export Plug-In . SVG Version: 6.00 Build 0)  -->
<svg version="1.1" id="Layer_1" xmlns="http://www.w3.org/2000/svg" xmlns:xlink="http://www.w3.org/1999/xlink" x="0px"
	y="0px" viewBox="0 0 566.93 566.93" style="enable-background:new 0 0 566.93 566.93;" xml:space="preserve">
	<style type="text/css">
		.st0 {
			fill: #1C75BC;
		}
	</style>
	<g>
		<path class="st0" d="M377.64,123.31c-40.86,0-72.28,10.36-96.07,31.7c-1.27,1.14-7.78,8.51-11.17,14.74l19.77,10.75
		c1.5-2.77,3.55-6.03,6.66-8.94c19.44-17.32,45.88-25.73,80.81-25.73c67.8,0,122.96,55.16,122.96,122.96
		c0,22.1-4.14,41.49-15.22,60.29c0,16.05-7.18,25.08-11.22,28.26c9.7,0,25.52-6.3,32.96-20.23c8.03-15.02,15.98-45.21,15.98-68.32
		C523.09,188.56,457.84,123.31,377.64,123.31z" />
		<path class="st0" d="M420.83,376.06c-16.43,29.4-49.1,45.06-84.26,45.06c-48.65,0-89.4-37.31-93.93-85.41l3.63,0
		c7.6-0.43,14.68-2.75,20.73-6.5c5.53-3.39,10.2-8.03,13.62-13.49c4.12-6.5,6.47-14.2,6.47-22.53V185.96L267,175.46v38.97h-17.13
		v17.2H267v19.16h-8.54v17.2H267v25.31c0,0.6-0.04,1.2-0.09,1.79h-17.05v17.2h7.05c-3.11,2.12-6.74,3.4-10.64,3.42l-96.87-0.04
		l-3.91,20.04l74.57,0c4.6,60.6,55.56,107.91,116.52,107.91c47.92,0,91.85-26.35,109.54-69.35
		C441.25,376.26,426.67,376.41,420.83,376.06z" />
		<path class="st0" d="M481.74,313.97v-82.25c-0.15,0-20.55-0.09-20.7-0.09c-22.74,0-40.21,18.44-40.21,41.18
		c0,2.66,0.24,5.28,0.7,7.79c1.25,6.93,4.18,13.25,8.37,18.5c6.9,8.67,17.25,14.32,29.22,14.87c0.85,0.01,1.77,0.1,2.53,0.1
		c0,2.85-0.03,8.21-0.03,11.19c0,14.72-11.91,26.65-26.62,26.65c-5.22,0-9.93,0.01-14.17,0.01l0,19.99c4.61,0,9.22-0.01,14.17-0.01
		c9.95,0,19.17-3.11,26.74-8.46c12.03-8.43,19.87-22.38,19.87-38.19L481.74,313.97z M461.74,293.12
		c-9.16-1.71-16.52-6.01-19.02-13.86c-0.64-1.92-0.98-4.06-0.98-6.44c0-12,8.58-18.13,20-20.27V293.12z" />
		<path class="st0" d="M302.83,378.21c4.61,0,9.22-0.03,14.17-0.03c9.95,0,19.17-3.11,26.74-8.46c12.03-8.43,19.87-22.38,19.87-38.19
		l0.12-11.23v-0.03c22.74-1.25,40.82-20.12,40.82-43.2v-39.32h-20.09v39.44c0,11.48-9.28,20.76-20.76,20.76v-60.2h-20.06v82.61
		c0,2.84-0.03,8.18-0.03,11.17c0,14.72-11.91,26.65-26.62,26.65c-5.22,0-9.95,0.03-14.17,0.03V378.21z" />
		<path class="st0" d="M132.02,306.49c-3.75-7.07-6.11-14.73-6.37-15.58l-0.26-0.75c-0.07-0.19-0.13-0.39-0.27-0.81
		c-0.68-2.01-1.27-4.06-1.82-6.12h4.3v-17.2h-7.21c-0.2-2.62-0.31-5.26-0.31-7.92c0-21.01,6.53-40.51,17.65-56.61h14.96v-17.15
		c17.74-16.18,41.31-26.07,67.16-26.07c15.39,0,30.86,0.47,44.88,7.56c0,0,2-3.91,6.11-9.19c3.67-4.72,7.18-7.4,7.18-7.4
		c-0.32-0.16-2.64-1.29-2.96-1.44c-16.64-8.22-37.02-10.3-55.2-10.3c-39.92,0-75.34,19.53-97.29,49.52v-0.79h-17.2v17.2h7.1
		c-4.51,8.83-7.96,18.27-10.18,28.18h-0.47v2.05c-1.63,7.89-2.49,16.06-2.49,24.43c0,13.09,2.06,25.84,6.06,37.67
		c0.16,0.52,0.33,1.03,0.49,1.47c0.71,2.31,3.47,10.79,7.8,18.97c3.5,6.59,10.98,15.16,26.77,18.52l4.32-20.32
		C138.47,313.08,134.06,310.34,132.02,306.49z" />
		<path class="st0" d="M323.3,328.3V201.51h-20v140.32h6.46C317.24,341.83,323.3,335.77,323.3,328.3z" />
		<path class="st0" d="M379.04,348.55h30.28c11.48,0,20.76-9.28,20.76-20.76h-51.04V348.55z" />
		<polygon class="st0"
			points="215.47,231.63 215.47,248.83 232.67,248.83 249.87,248.83 249.87,231.63 232.67,231.63 	" />
		<rect x="181.19" y="248.83" class="st0" width="17.2" height="17.2" />
		<rect x="232.27" y="266.03" class="st0" width="17.2" height="17.2" />
		<rect x="200.76" y="284.52" class="st0" width="17.2" height="17.2" />
		<rect x="177.53" y="177.65" class="st0" width="17.2" height="17.2" />
		<rect x="121.48" y="144.77" class="st0" width="17.2" height="17.2" />
		<rect x="104.28" y="161.97" class="st0" width="17.2" height="17.2" />
		<rect x="43.84" y="153.37" class="st0" width="17.2" height="17.2" />
		<rect x="61.04" y="188.63" class="st0" width="17.2" height="17.2" />
		<rect x="66.05" y="242.2" class="st0" width="17.2" height="17.2" />
		<rect x="152.12" y="288.6" class="st0" width="17.2" height="17.2" />
		<rect x="206.73" y="259.39" class="st0" width="17.2" height="17.2" />
		<polygon class="st0"
			points="181.19,266.03 163.99,266.03 146.79,266.03 146.79,283.23 163.99,283.23 181.19,283.23 	" />
		<rect x="128.29" y="231.71" class="st0" width="17.2" height="17.2" />
		<rect x="198.27" y="214.43" class="st0" width="17.2" height="17.2" />
		<rect x="215.47" y="197.23" class="st0" width="17.2" height="17.2" />
		<rect x="163.99" y="214.43" class="st0" width="17.2" height="17.2" />
	</g>
</svg>
